<svg width="100" height="100" viewBox="0 0 100 100" fill="none" xmlns="http://www.w3.org/2000/svg">
<g clip-path="url(#clip0)">
<g clip-path="url(#clip1)">
<path d="M89.7474 61.2011C89.2613 60.359 88.6336 59.649 87.913 59.0801C90.227 56.7461 90.8006 53.0623 89.0801 50.0823C88.6415 49.3226 88.088 48.6703 87.4552 48.132C90.7598 45.9842 91.844 41.5859 89.8507 38.1334C88.1302 35.1534 84.6532 33.8082 81.4749 34.6452C81.3425 33.7368 81.0416 32.8383 80.5553 31.9961C78.9698 29.2499 75.8924 27.8926 72.9321 28.3512C72.8223 27.3551 72.5113 26.3657 71.9789 25.4436C69.9189 21.8755 65.34 20.6486 61.7719 22.7087L41.6651 34.3173C40.2612 32.3445 38.1905 30.8293 35.6744 30.1548C35.2217 30.0335 34.7661 29.9934 34.3226 30.0236C33.0997 26.9749 30.508 24.5163 27.098 23.6024C24.8871 23.0098 22.6063 24.3267 22.014 26.5377L15.893 49.3813C15.1468 52.1658 13.3609 54.4934 10.8643 55.9348L6.34363 58.5448C5.15238 59.2326 4.74421 60.756 5.43197 61.9472L25.3575 96.4593C26.0453 97.6505 27.5686 98.0587 28.7599 97.3709L39.2993 91.286C43.6645 93.538 48.8524 93.4399 53.18 90.9413L87.0125 71.4081C90.5806 69.348 91.8075 64.7692 89.7474 61.2011ZM67.6649 27.9343C68.3516 29.1237 67.9426 30.65 66.7532 31.3367L42.8306 45.1484L43.3062 43.3735C43.7024 41.8949 43.7679 40.4047 43.5522 38.9798L64.2626 27.0227C65.4519 26.336 66.9782 26.745 67.6649 27.9343V27.9343ZM20.7045 50.6706L26.5955 28.6855C27.7454 29.1756 28.7016 30.0203 29.3376 31.1218C30.1138 32.4662 30.3199 34.0324 29.9182 35.5318L27.8863 43.115C27.8615 43.2075 27.8436 43.3003 27.8297 43.3929L24.4694 55.9339C23.7231 58.7185 21.9373 61.0461 19.4406 62.4875L13.4821 65.9277L10.9914 61.6137L13.3551 60.249C17.0039 58.1421 19.614 54.7405 20.7045 50.6706ZM50.6893 86.6273C47.5444 88.443 43.708 88.3284 40.6769 86.3279C39.8897 85.8083 38.8766 85.778 38.0596 86.2497L28.4262 91.8116L15.9727 70.2415L21.9314 66.8013C25.5803 64.6946 28.1904 61.293 29.281 57.223L35.1719 35.2385C37.7839 36.3564 39.2513 39.2607 38.4948 42.0842L36.4629 49.6673C36.1069 50.9958 36.8954 52.3616 38.224 52.7178C38.8886 52.8958 39.5626 52.7876 40.1148 52.4686L72.839 33.5753C74.0284 32.8886 75.5547 33.2975 76.2414 34.4869C76.9281 35.6763 76.5191 37.2026 75.3297 37.8893L53.7597 50.3427C52.5684 51.0305 52.1603 52.5538 52.848 53.7451C53.5358 54.9363 55.0591 55.3445 56.2504 54.6567L82.1344 39.7126C83.3238 39.0259 84.8501 39.4349 85.5368 40.6242C86.2235 41.8136 85.8145 43.3399 84.6251 44.0266L58.7411 58.9707C57.5498 59.6585 57.1416 61.1819 57.8294 62.3731C58.5172 63.5643 60.0405 63.9725 61.2318 63.2848L81.3638 51.6615C82.5532 50.9748 84.0795 51.3838 84.7661 52.5732C85.4528 53.7626 85.0439 55.2888 83.8545 55.9755L63.7225 67.5988C62.5312 68.2865 62.123 69.8099 62.8108 71.0011C63.4986 72.1924 65.0219 72.6005 66.2131 71.9128L82.0312 62.7802C83.2205 62.0935 84.7468 62.5025 85.4335 63.6919C86.1202 64.8813 85.7112 66.4076 84.5219 67.0942L50.6894 86.6274L50.6893 86.6273Z" fill="black"/>
<path d="M54.2183 14.6069C54.9061 15.7982 56.4294 16.2063 57.6207 15.5186C58.8119 14.8308 59.2201 13.3075 58.5323 12.1162L55.2114 6.36422C54.5236 5.17298 53.0003 4.7648 51.8091 5.45256C50.6178 6.14033 50.2096 7.66367 50.8974 8.85491L54.2183 14.6069Z" fill="black"/>
<path d="M51.372 18.6469L45.62 15.326C44.4287 14.6381 42.9054 15.0463 42.2177 16.2377C41.7563 17.0368 41.788 17.9851 42.2184 18.7306C42.4297 19.0966 42.737 19.4136 43.1294 19.64L48.8814 22.9609C50.0727 23.6488 51.596 23.2406 52.2837 22.0492C52.9716 20.8579 52.5635 19.3345 51.372 18.6469V18.6469Z" fill="black"/>
<path d="M63.454 5.02943L63.454 11.6713C63.454 12.1242 63.5748 12.5489 63.7861 12.9149C64.2164 13.6604 65.0219 14.1621 65.9446 14.1619C67.3202 14.1621 68.4355 13.0469 68.4353 11.6713L68.4353 5.02949C68.4357 3.6536 67.3204 2.53853 65.9447 2.53882C64.5692 2.53881 63.4539 3.65401 63.454 5.02943V5.02943Z" fill="black"/>
</g>
</g>
<defs>
<clipPath id="clip0">
<rect width="100" height="100" fill="white"/>
</clipPath>
<clipPath id="clip1">
<rect width="85.0157" height="85.0157" fill="white" transform="translate(66.189 -2.84973) rotate(60)"/>
</clipPath>
</defs>
</svg>
