<svg width="158" height="24" viewBox="0 0 158 24" fill="none" xmlns="http://www.w3.org/2000/svg">
<circle cx="9" cy="12" r="9" fill="black"/>
<path d="M25.9225 14.5175C25.9225 13.2875 26.1718 12.1656 26.6705 11.1517C27.1858 10.1211 27.8839 9.29834 28.7648 8.68334C29.6624 8.06834 30.6846 7.76084 31.8315 7.76084C32.8787 7.76084 33.8178 8.0351 34.6489 8.58361C35.48 9.13213 36.1282 9.79699 36.5936 10.5782V2.79927H38.7877V18.5067C38.7877 18.7727 38.8375 18.9722 38.9373 19.1051C39.0536 19.2215 39.2365 19.288 39.4858 19.3046V21C39.0702 21.0665 38.7461 21.0997 38.5134 21.0997C38.0813 21.0997 37.699 20.9501 37.3665 20.6509C37.0507 20.3518 36.8928 20.0193 36.8928 19.6536V18.5566C36.3775 19.3877 35.6877 20.0443 34.8234 20.5263C33.9591 21.0083 33.0615 21.2493 32.1307 21.2493C31.2331 21.2493 30.402 21.0748 29.6374 20.7257C28.8895 20.3601 28.2329 19.8614 27.6678 19.2298C27.1193 18.5982 26.6871 17.8834 26.3713 17.0856C26.0721 16.2711 25.9225 15.4151 25.9225 14.5175ZM36.5936 16.4374V12.6975C36.3942 12.1323 36.07 11.6254 35.6212 11.1766C35.1725 10.7112 34.6655 10.3455 34.1004 10.0796C33.5519 9.79699 33.0033 9.65571 32.4548 9.65571C31.8066 9.65571 31.2165 9.79699 30.6846 10.0796C30.1693 10.3455 29.7206 10.7112 29.3383 11.1766C28.9726 11.6254 28.69 12.1406 28.4906 12.7224C28.2911 13.3042 28.1914 13.9109 28.1914 14.5425C28.1914 15.1907 28.2994 15.8057 28.5155 16.3875C28.7482 16.9692 29.064 17.4845 29.4629 17.9333C29.8785 18.3821 30.3522 18.7311 30.8841 18.9805C31.4326 19.2298 32.0227 19.3545 32.6543 19.3545C33.0532 19.3545 33.4604 19.2797 33.876 19.1301C34.3081 18.9805 34.7154 18.7727 35.0977 18.5067C35.48 18.2408 35.8041 17.9333 36.07 17.5842C36.336 17.2186 36.5105 16.8363 36.5936 16.4374ZM48.135 21.2493C47.1544 21.2493 46.2651 21.0748 45.4673 20.7257C44.6694 20.3601 43.9796 19.8697 43.3979 19.2547C42.8161 18.6231 42.3673 17.9001 42.0515 17.0856C41.7357 16.2711 41.5778 15.4151 41.5778 14.5175C41.5778 13.6034 41.7357 12.739 42.0515 11.9246C42.3673 11.1101 42.8161 10.3954 43.3979 9.78037C43.9796 9.14875 44.6694 8.65841 45.4673 8.30935C46.2817 7.94368 47.171 7.76084 48.135 7.76084C49.1157 7.76084 50.005 7.94368 50.8028 8.30935C51.6006 8.65841 52.2904 9.14875 52.8722 9.78037C53.4706 10.3954 53.9277 11.1101 54.2435 11.9246C54.5593 12.739 54.7172 13.6034 54.7172 14.5175C54.7172 15.4151 54.5593 16.2711 54.2435 17.0856C53.9277 17.9001 53.4789 18.6231 52.8971 19.2547C52.3154 19.8697 51.6173 20.3601 50.8028 20.7257C50.005 21.0748 49.1157 21.2493 48.135 21.2493ZM43.8217 14.5425C43.8217 15.4401 44.0129 16.2545 44.3952 16.9859C44.7941 17.7172 45.3177 18.299 45.9659 18.7311C46.6141 19.1467 47.3372 19.3545 48.135 19.3545C48.9329 19.3545 49.6559 19.1384 50.3042 18.7062C50.969 18.274 51.4926 17.6923 51.8749 16.9609C52.2738 16.213 52.4733 15.3902 52.4733 14.4926C52.4733 13.595 52.2738 12.7806 51.8749 12.0492C51.4926 11.3179 50.969 10.7361 50.3042 10.304C49.6559 9.87179 48.9329 9.65571 48.135 9.65571C47.3372 9.65571 46.6141 9.8801 45.9659 10.3289C45.3177 10.761 44.7941 11.3428 44.3952 12.0742C44.0129 12.8055 43.8217 13.6283 43.8217 14.5425ZM63.9128 20.3518C63.73 20.4349 63.4807 20.5429 63.1649 20.6759C62.849 20.8089 62.4834 20.9252 62.0678 21.0249C61.6523 21.1247 61.2118 21.1745 60.7464 21.1745C60.2145 21.1745 59.7242 21.0831 59.2754 20.9003C58.8266 20.7008 58.4692 20.4016 58.2033 20.0027C57.9373 19.5872 57.8044 19.0719 57.8044 18.4569V9.70557H56.0342V7.98523H57.8044V3.64697H59.9984V7.98523H62.9155V9.70557H59.9984V17.7837C60.0317 18.2491 60.1896 18.5982 60.4721 18.8309C60.7547 19.047 61.0871 19.155 61.4694 19.155C61.9016 19.155 62.3005 19.0802 62.6662 18.9306C63.0319 18.781 63.2729 18.673 63.3892 18.6065L63.9128 20.3518ZM85.5683 21H83.3742V13.7197C83.3742 12.3567 83.1498 11.3511 82.701 10.7029C82.2689 10.0546 81.6206 9.73051 80.7563 9.73051C79.8753 9.73051 79.0775 10.0546 78.3628 10.7029C77.648 11.3345 77.1411 12.1573 76.8419 13.1712V21H74.6478V13.7197C74.6478 12.3401 74.4318 11.3345 73.9996 10.7029C73.5674 10.0546 72.9192 9.73051 72.0549 9.73051C71.1905 9.73051 70.3927 10.0463 69.6613 10.6779C68.9466 11.2929 68.4396 12.1157 68.1404 13.1463V21H65.9464V7.98523H67.941V10.7777C68.4729 9.81361 69.1627 9.07395 70.0104 8.55868C70.8581 8.02678 71.8138 7.76084 72.8776 7.76084C73.958 7.76084 74.8224 8.06003 75.4706 8.65841C76.1188 9.24017 76.5178 9.99645 76.6674 10.9273C77.2491 9.89672 77.9555 9.1155 78.7866 8.58361C79.6177 8.0351 80.5651 7.76084 81.6289 7.76084C82.3769 7.76084 83.0002 7.90212 83.4989 8.18469C84.0141 8.45064 84.4214 8.83294 84.7206 9.33159C85.0198 9.81361 85.2358 10.3871 85.3688 11.0519C85.5018 11.7168 85.5683 12.4398 85.5683 13.2211V21ZM94.7391 21.2493C93.7585 21.2493 92.8609 21.0748 92.0464 20.7257C91.2486 20.3601 90.5505 19.8697 89.9521 19.2547C89.3703 18.6231 88.9133 17.9001 88.5808 17.0856C88.265 16.2711 88.1071 15.4068 88.1071 14.4926C88.1071 13.2626 88.3897 12.1406 88.9548 11.1267C89.5199 10.1128 90.3012 9.29834 91.2985 8.68334C92.3124 8.06834 93.4676 7.76084 94.7641 7.76084C96.0772 7.76084 97.2158 8.07665 98.1798 8.70827C99.1605 9.32327 99.9168 10.1377 100.449 11.1517C100.997 12.149 101.271 13.2294 101.271 14.3929C101.271 14.5591 101.263 14.7253 101.247 14.8915C101.247 15.0411 101.238 15.1575 101.222 15.2406H90.4258C90.4923 16.0883 90.725 16.8446 91.1239 17.5094C91.5395 18.1577 92.0714 18.673 92.7196 19.0553C93.3679 19.4209 94.066 19.6038 94.8139 19.6038C95.6118 19.6038 96.3598 19.4043 97.0579 19.0054C97.7726 18.6065 98.2629 18.0829 98.5289 17.4347L100.424 17.9582C100.141 18.5899 99.7173 19.155 99.1522 19.6536C98.6037 20.1523 97.9471 20.5429 97.1825 20.8255C96.4346 21.108 95.6201 21.2493 94.7391 21.2493ZM90.351 13.7197H99.227C99.1605 12.872 98.9195 12.124 98.504 11.4758C98.0884 10.8275 97.5565 10.3206 96.9083 9.9549C96.26 9.58922 95.5453 9.40638 94.7641 9.40638C93.9995 9.40638 93.2931 9.58922 92.6448 9.9549C91.9966 10.3206 91.4647 10.8275 91.0491 11.4758C90.6502 12.124 90.4175 12.872 90.351 13.7197ZM110.32 20.3518C110.138 20.4349 109.888 20.5429 109.572 20.6759C109.257 20.8089 108.891 20.9252 108.475 21.0249C108.06 21.1247 107.619 21.1745 107.154 21.1745C106.622 21.1745 106.132 21.0831 105.683 20.9003C105.234 20.7008 104.877 20.4016 104.611 20.0027C104.345 19.5872 104.212 19.0719 104.212 18.4569V9.70557H102.442V7.98523H104.212V3.64697H106.406V7.98523H109.323V9.70557H106.406V17.7837C106.439 18.2491 106.597 18.5982 106.88 18.8309C107.162 19.047 107.495 19.155 107.877 19.155C108.309 19.155 108.708 19.0802 109.074 18.9306C109.439 18.781 109.68 18.673 109.797 18.6065L110.32 20.3518ZM123.648 21H121.454V13.7197C121.454 12.39 121.213 11.3927 120.731 10.7278C120.266 10.0629 119.593 9.73051 118.712 9.73051C118.147 9.73051 117.573 9.8801 116.991 10.1793C116.426 10.4785 115.928 10.8857 115.495 11.401C115.063 11.8996 114.747 12.4814 114.548 13.1463V21H112.354V2.79927H114.548V10.7777C115.063 9.84686 115.761 9.1155 116.642 8.58361C117.54 8.0351 118.504 7.76084 119.535 7.76084C120.316 7.76084 120.964 7.90212 121.479 8.18469C122.011 8.45064 122.435 8.83294 122.751 9.33159C123.067 9.83024 123.291 10.412 123.424 11.0769C123.574 11.7251 123.648 12.4398 123.648 13.2211V21ZM132.745 21.2493C131.764 21.2493 130.875 21.0748 130.077 20.7257C129.279 20.3601 128.589 19.8697 128.008 19.2547C127.426 18.6231 126.977 17.9001 126.661 17.0856C126.346 16.2711 126.188 15.4151 126.188 14.5175C126.188 13.6034 126.346 12.739 126.661 11.9246C126.977 11.1101 127.426 10.3954 128.008 9.78037C128.589 9.14875 129.279 8.65841 130.077 8.30935C130.892 7.94368 131.781 7.76084 132.745 7.76084C133.726 7.76084 134.615 7.94368 135.413 8.30935C136.21 8.65841 136.9 9.14875 137.482 9.78037C138.08 10.3954 138.538 11.1101 138.853 11.9246C139.169 12.739 139.327 13.6034 139.327 14.5175C139.327 15.4151 139.169 16.2711 138.853 17.0856C138.538 17.9001 138.089 18.6231 137.507 19.2547C136.925 19.8697 136.227 20.3601 135.413 20.7257C134.615 21.0748 133.726 21.2493 132.745 21.2493ZM128.432 14.5425C128.432 15.4401 128.623 16.2545 129.005 16.9859C129.404 17.7172 129.927 18.299 130.576 18.7311C131.224 19.1467 131.947 19.3545 132.745 19.3545C133.543 19.3545 134.266 19.1384 134.914 18.7062C135.579 18.274 136.102 17.6923 136.485 16.9609C136.884 16.213 137.083 15.3902 137.083 14.4926C137.083 13.595 136.884 12.7806 136.485 12.0492C136.102 11.3179 135.579 10.7361 134.914 10.304C134.266 9.87179 133.543 9.65571 132.745 9.65571C131.947 9.65571 131.224 9.8801 130.576 10.3289C129.927 10.761 129.404 11.3428 129.005 12.0742C128.623 12.8055 128.432 13.6283 128.432 14.5425ZM141.138 14.5175C141.138 13.2875 141.387 12.1656 141.886 11.1517C142.401 10.1211 143.099 9.29834 143.98 8.68334C144.878 8.06834 145.9 7.76084 147.047 7.76084C148.094 7.76084 149.033 8.0351 149.864 8.58361C150.695 9.13213 151.344 9.79699 151.809 10.5782V2.79927H154.003V18.5067C154.003 18.7727 154.053 18.9722 154.153 19.1051C154.269 19.2215 154.452 19.288 154.701 19.3046V21C154.286 21.0665 153.962 21.0997 153.729 21.0997C153.297 21.0997 152.914 20.9501 152.582 20.6509C152.266 20.3518 152.108 20.0193 152.108 19.6536V18.5566C151.593 19.3877 150.903 20.0443 150.039 20.5263C149.175 21.0083 148.277 21.2493 147.346 21.2493C146.449 21.2493 145.618 21.0748 144.853 20.7257C144.105 20.3601 143.448 19.8614 142.883 19.2298C142.335 18.5982 141.903 17.8834 141.587 17.0856C141.288 16.2711 141.138 15.4151 141.138 14.5175ZM151.809 16.4374V12.6975C151.61 12.1323 151.285 11.6254 150.837 11.1766C150.388 10.7112 149.881 10.3455 149.316 10.0796C148.767 9.79699 148.219 9.65571 147.67 9.65571C147.022 9.65571 146.432 9.79699 145.9 10.0796C145.385 10.3455 144.936 10.7112 144.554 11.1766C144.188 11.6254 143.905 12.1406 143.706 12.7224C143.507 13.3042 143.407 13.9109 143.407 14.5425C143.407 15.1907 143.515 15.8057 143.731 16.3875C143.964 16.9692 144.279 17.4845 144.678 17.9333C145.094 18.3821 145.568 18.7311 146.1 18.9805C146.648 19.2298 147.238 19.3545 147.87 19.3545C148.269 19.3545 148.676 19.2797 149.091 19.1301C149.524 18.9805 149.931 18.7727 150.313 18.5067C150.695 18.2408 151.02 17.9333 151.285 17.5842C151.551 17.2186 151.726 16.8363 151.809 16.4374Z" fill="black"/>
</svg>
