<svg width="266" height="40" viewBox="0 0 266 40" fill="none" xmlns="http://www.w3.org/2000/svg">
<g clip-path="url(#clip0)">
<path d="M59.1429 37.4457C57.3897 37.4457 55.8149 37.0446 54.4183 36.2423C53.0514 35.4103 51.9669 34.2514 51.1646 32.7657C50.392 31.2503 50.0057 29.4971 50.0057 27.5063C50.0057 25.4857 50.4217 23.7474 51.2537 22.2914C52.0857 20.8354 53.2297 19.7211 54.6857 18.9486C56.1714 18.176 57.8206 17.7897 59.6331 17.7897C61.0297 17.7897 62.3669 18.0869 63.6446 18.6811C64.9223 19.2457 65.9474 20.0331 66.72 21.0434V2.45714H70.8651V37H66.6754V34.1474C65.784 35.128 64.6846 35.9303 63.3771 36.5543C62.0994 37.1486 60.688 37.4457 59.1429 37.4457ZM60.4354 33.88C62.04 33.88 63.392 33.4491 64.4914 32.5874C65.5909 31.7257 66.304 30.5669 66.6309 29.1109V25.6343C66.304 24.3269 65.5611 23.2423 64.4023 22.3806C63.2731 21.5189 61.9509 21.088 60.4354 21.088C59.3063 21.088 58.2663 21.3703 57.3154 21.9349C56.3646 22.4697 55.6069 23.2126 55.0423 24.1634C54.4777 25.1143 54.1954 26.2137 54.1954 27.4617C54.1954 28.6503 54.4777 29.7349 55.0423 30.7154C55.6069 31.696 56.3646 32.4686 57.3154 33.0331C58.2663 33.5977 59.3063 33.88 60.4354 33.88ZM76.4265 27.5954C76.4265 25.7531 76.8573 24.0891 77.719 22.6034C78.6105 21.1177 79.8288 19.944 81.3739 19.0823C82.919 18.2206 84.6871 17.7897 86.6779 17.7897C88.6688 17.7897 90.4219 18.2206 91.9373 19.0823C93.4528 19.944 94.6265 21.1177 95.4585 22.6034C96.3202 24.0891 96.7511 25.7531 96.7511 27.5954C96.7511 29.4377 96.3202 31.1017 95.4585 32.5874C94.6265 34.0731 93.4379 35.2617 91.8928 36.1531C90.3773 37.0149 88.6093 37.4457 86.5888 37.4457C84.6276 37.4457 82.8745 37.0446 81.3293 36.2423C79.8139 35.44 78.6105 34.296 77.719 32.8103C76.8573 31.3246 76.4265 29.5863 76.4265 27.5954ZM80.6162 27.64C80.6162 28.8286 80.8688 29.9131 81.3739 30.8937C81.9088 31.8446 82.6219 32.6023 83.5133 33.1669C84.4048 33.7314 85.4151 34.0137 86.5442 34.0137C87.7031 34.0137 88.7282 33.7314 89.6196 33.1669C90.5111 32.6023 91.2093 31.8446 91.7145 30.8937C92.2493 29.9131 92.5168 28.8286 92.5168 27.64C92.5168 26.4514 92.2493 25.3817 91.7145 24.4309C91.2093 23.4503 90.5111 22.6777 89.6196 22.1131C88.7282 21.5189 87.7031 21.2217 86.5442 21.2217C85.4151 21.2217 84.3899 21.5189 83.4688 22.1131C82.5773 22.7074 81.879 23.4949 81.3739 24.4754C80.8688 25.4263 80.6162 26.4811 80.6162 27.64ZM104.102 10.4354H108.292V18.592H113.328V21.8903H108.292V37H104.102V21.8903H100.714V18.592H104.102V10.4354ZM122.124 18.5474L122.392 22.0686C123.105 20.7314 124.071 19.6914 125.289 18.9486C126.537 18.176 127.963 17.7897 129.568 17.7897C131.083 17.7897 132.346 18.1463 133.356 18.8594C134.396 19.5726 135.035 20.5383 135.273 21.7566C136.016 20.5086 136.982 19.5429 138.17 18.8594C139.388 18.1463 140.681 17.7897 142.048 17.7897C143.831 17.7897 145.242 18.3097 146.282 19.3497C147.352 20.3897 147.916 21.712 147.976 23.3166V37H143.831V24.8766C143.771 23.9257 143.519 23.1383 143.073 22.5143C142.657 21.8606 141.929 21.504 140.889 21.4446C139.79 21.4446 138.824 21.7714 137.992 22.4251C137.16 23.0491 136.506 23.8811 136.031 24.9211C135.555 25.9611 135.303 27.0606 135.273 28.2194V37H131.083V24.8766C131.054 23.9257 130.801 23.1383 130.326 22.5143C129.88 21.8606 129.122 21.504 128.052 21.4446C126.983 21.4446 126.032 21.7714 125.2 22.4251C124.368 23.0491 123.714 23.8811 123.239 24.9211C122.763 25.9611 122.526 27.0754 122.526 28.264V37H118.38V18.5474H122.124ZM163.718 37.4457C161.638 37.4457 159.826 37.0297 158.281 36.1977C156.765 35.336 155.591 34.1623 154.759 32.6766C153.957 31.1909 153.556 29.512 153.556 27.64C153.556 25.8274 154.002 24.1783 154.893 22.6926C155.814 21.1771 157.047 19.9886 158.593 19.1269C160.167 18.2354 161.906 17.7897 163.807 17.7897C166.244 17.7897 168.265 18.5029 169.869 19.9291C171.474 21.3554 172.573 23.3166 173.167 25.8126L158.548 30.9383C159.053 31.8594 159.766 32.5874 160.687 33.1223C161.609 33.6274 162.649 33.88 163.807 33.88C164.639 33.88 165.427 33.7314 166.17 33.4343C166.913 33.1371 167.626 32.7509 168.309 32.2754L170.226 35.3509C169.275 35.9749 168.22 36.48 167.061 36.8663C165.932 37.2526 164.818 37.4457 163.718 37.4457ZM157.657 27.4171C157.627 27.7737 157.642 28.1154 157.701 28.4423L168.443 24.4754C168.027 23.584 167.418 22.7966 166.615 22.1131C165.843 21.4297 164.803 21.088 163.495 21.088C161.802 21.088 160.405 21.6823 159.306 22.8709C158.206 24.0594 157.657 25.5749 157.657 27.4171ZM180.1 10.4354H184.289V18.592H189.326V21.8903H184.289V37H180.1V21.8903H176.712V18.592H180.1V10.4354ZM194.378 37V2.45714H198.434V21.8903C199.088 20.7017 200.054 19.736 201.331 18.9931C202.609 18.2206 204.11 17.8343 205.833 17.8343C207.556 17.8343 208.968 18.3543 210.067 19.3943C211.196 20.4046 211.791 21.7269 211.85 23.3611V37H207.66V24.7874C207.601 23.8069 207.289 23.0046 206.724 22.3806C206.19 21.7566 205.343 21.4297 204.184 21.4C203.114 21.4 202.148 21.712 201.287 22.336C200.455 22.9303 199.786 23.7474 199.281 24.7874C198.776 25.8274 198.523 27.016 198.523 28.3531V37H194.378ZM217.41 27.5954C217.41 25.7531 217.841 24.0891 218.702 22.6034C219.594 21.1177 220.812 19.944 222.357 19.0823C223.902 18.2206 225.67 17.7897 227.661 17.7897C229.652 17.7897 231.405 18.2206 232.921 19.0823C234.436 19.944 235.61 21.1177 236.442 22.6034C237.303 24.0891 237.734 25.7531 237.734 27.5954C237.734 29.4377 237.303 31.1017 236.442 32.5874C235.61 34.0731 234.421 35.2617 232.876 36.1531C231.361 37.0149 229.593 37.4457 227.572 37.4457C225.611 37.4457 223.858 37.0446 222.313 36.2423C220.797 35.44 219.594 34.296 218.702 32.8103C217.841 31.3246 217.41 29.5863 217.41 27.5954ZM221.599 27.64C221.599 28.8286 221.852 29.9131 222.357 30.8937C222.892 31.8446 223.605 32.6023 224.497 33.1669C225.388 33.7314 226.398 34.0137 227.527 34.0137C228.686 34.0137 229.711 33.7314 230.603 33.1669C231.494 32.6023 232.193 31.8446 232.698 30.8937C233.233 29.9131 233.5 28.8286 233.5 27.64C233.5 26.4514 233.233 25.3817 232.698 24.4309C232.193 23.4503 231.494 22.6777 230.603 22.1131C229.711 21.5189 228.686 21.2217 227.527 21.2217C226.398 21.2217 225.373 21.5189 224.452 22.1131C223.561 22.7074 222.862 23.4949 222.357 24.4754C221.852 25.4263 221.599 26.4811 221.599 27.64ZM250.835 37.4457C249.082 37.4457 247.507 37.0446 246.11 36.2423C244.743 35.4103 243.659 34.2514 242.857 32.7657C242.084 31.2503 241.698 29.4971 241.698 27.5063C241.698 25.4857 242.114 23.7474 242.946 22.2914C243.778 20.8354 244.922 19.7211 246.378 18.9486C247.863 18.176 249.513 17.7897 251.325 17.7897C252.722 17.7897 254.059 18.0869 255.337 18.6811C256.614 19.2457 257.639 20.0331 258.412 21.0434V2.45714H262.557V37H258.367V34.1474C257.476 35.128 256.377 35.9303 255.069 36.5543C253.791 37.1486 252.38 37.4457 250.835 37.4457ZM252.127 33.88C253.732 33.88 255.084 33.4491 256.183 32.5874C257.283 31.7257 257.996 30.5669 258.323 29.1109V25.6343C257.996 24.3269 257.253 23.2423 256.094 22.3806C254.965 21.5189 253.643 21.088 252.127 21.088C250.998 21.088 249.958 21.3703 249.007 21.9349C248.057 22.4697 247.299 23.2126 246.734 24.1634C246.17 25.1143 245.887 26.2137 245.887 27.4617C245.887 28.6503 246.17 29.7349 246.734 30.7154C247.299 31.696 248.057 32.4686 249.007 33.0331C249.958 33.5977 250.998 33.88 252.127 33.88Z" fill="black"/>
<circle cx="10.5" cy="29.5" r="7.5" fill="black"/>
<circle cx="30.5" cy="29.5" r="7.5" fill="black"/>
<circle cx="30.5" cy="9.5" r="7.5" fill="black"/>
</g>
<defs>
<clipPath id="clip0">
<rect width="266" height="40" fill="white"/>
</clipPath>
</defs>
</svg>
